<svg width="24" height="32" viewBox="0 0 24 32" fill="none" xmlns="http://www.w3.org/2000/svg">
<path d="M17.3125 10.6687C18.7273 10.6687 20.0841 10.1067 21.0845 9.10635C22.0849 8.10596 22.6469 6.74914 22.6469 5.33437C22.6469 3.91961 22.0849 2.56279 21.0845 1.5624C20.0841 0.562013 18.7273 0 17.3125 0L6.64375 0C5.22981 0 3.87379 0.561684 2.87398 1.56149C1.87418 2.56129 1.3125 3.91731 1.3125 5.33125C1.3125 6.74519 1.87418 8.10121 2.87398 9.10101C3.87379 10.1008 5.22981 10.6625 6.64375 10.6625C5.22898 10.6625 3.87216 11.2245 2.87177 12.2249C1.87138 13.2253 1.30937 14.5821 1.30937 15.9969C1.30937 17.4116 1.87138 18.7685 2.87177 19.7688C3.87216 20.7692 5.22898 21.3312 6.64375 21.3312C5.58871 21.3306 4.55718 21.6429 3.6796 22.2285C2.80202 22.8142 2.11782 23.6469 1.7135 24.6214C1.30918 25.5959 1.20291 26.6684 1.40814 27.7032C1.61336 28.7381 2.12085 29.6889 2.86644 30.4354C3.61203 31.1818 4.56223 31.6905 5.59687 31.8969C6.63152 32.1033 7.70415 31.9983 8.67911 31.5951C9.65408 31.192 10.4876 30.5087 11.0743 29.6318C11.6609 28.755 11.9744 27.7238 11.975 26.6688V10.6687H17.3125ZM17.3125 10.6687C16.2581 10.6687 15.2273 10.9814 14.3506 11.5672C13.4739 12.153 12.7906 12.9857 12.3871 13.9598C11.9836 14.934 11.878 16.0059 12.0837 17.0401C12.2894 18.0742 12.7971 19.0242 13.5427 19.7698C14.2883 20.5154 15.2383 21.0231 16.2724 21.2288C17.3066 21.4345 18.3785 21.3289 19.3527 20.9254C20.3268 20.5219 21.1595 19.8386 21.7453 18.9619C22.3311 18.0852 22.6437 17.0544 22.6437 16C22.6436 14.5861 22.0818 13.2302 21.0821 12.2304C20.0823 11.2307 18.7264 10.6689 17.3125 10.6687Z" fill="#372F2F"/>
</svg>
