<svg width="30" height="31" viewBox="0 0 30 31" fill="none" xmlns="http://www.w3.org/2000/svg">
<path d="M19.9657 24.0613C19.9657 24.1824 20.1048 24.2793 20.2802 24.2793C20.4798 24.2975 20.619 24.2006 20.619 24.0613C20.619 23.9402 20.4798 23.8434 20.3044 23.8434C20.123 23.8252 19.9657 23.9221 19.9657 24.0613ZM21.8468 23.7889C21.8891 23.91 21.7681 24.0492 21.5867 24.0855C21.4294 24.1461 21.248 24.0855 21.2117 23.9645C21.1754 23.8434 21.2903 23.7041 21.4718 23.6496C21.629 23.6072 21.8044 23.6678 21.8468 23.7889ZM19.1734 23.6859C19.3488 23.7283 19.4698 23.8434 19.4516 23.9826C19.4335 24.1037 19.2762 24.1824 19.0948 24.14C18.9194 24.0977 18.7984 23.9826 18.8165 23.8615C18.8347 23.7465 18.998 23.6678 19.1734 23.6859ZM15.1935 0.484375C23.5827 0.484375 30 6.85996 30 15.2578C30 21.9725 25.7782 27.7184 19.748 29.7406C18.9738 29.8799 18.7016 29.4016 18.7016 29.008C18.7016 28.6326 18.7198 26.5619 18.7198 25.2904C18.7198 25.2904 22.9536 26.1986 23.8427 23.4861C23.8427 23.4861 24.5323 21.7242 25.5242 21.2701C25.5242 21.2701 26.9093 20.3195 25.4274 20.3377C25.4274 20.3377 23.9214 20.4588 23.0927 21.8998C21.7681 24.2369 19.5484 23.5648 18.6835 23.1652C18.5444 22.1965 18.1512 21.5244 17.7157 21.1248C21.0968 20.7494 24.5081 20.259 24.5081 14.4344C24.5081 12.7693 24.0484 11.9338 23.0806 10.8682C23.2379 10.4746 23.752 8.85195 22.9234 6.75703C21.6593 6.36348 18.75 8.3918 18.75 8.3918C17.5403 8.05273 16.2399 7.87715 14.9516 7.87715C13.6633 7.87715 12.3629 8.05273 11.1532 8.3918C11.1532 8.3918 8.24395 6.35742 6.97984 6.75703C6.15121 8.85801 6.66532 10.4746 6.82258 10.8682C5.85484 11.9398 5.2621 12.7754 5.2621 14.4344C5.2621 20.2771 8.8246 20.7434 12.2056 21.1248C11.6492 21.6031 11.1774 22.5113 11.1774 23.9342C11.1774 25.9746 11.1956 28.4994 11.1956 28.9959C11.1956 29.3895 10.9173 29.8678 10.1492 29.7285C4.10081 27.7184 0 21.9725 0 15.2578C0 6.85996 6.80444 0.484375 15.1935 0.484375ZM24.121 21.367C24.1996 21.4275 24.1815 21.5668 24.0786 21.6818C23.9819 21.7787 23.8427 21.8211 23.7641 21.7424C23.6855 21.6818 23.7036 21.5426 23.8065 21.4275C23.9032 21.3307 24.0423 21.2883 24.121 21.367ZM24.7742 20.8766C24.8165 20.9553 24.756 21.0521 24.6351 21.1127C24.5383 21.1732 24.4173 21.1551 24.375 21.0703C24.3327 20.9916 24.3931 20.8947 24.5141 20.8342C24.6351 20.7979 24.7319 20.816 24.7742 20.8766ZM22.8145 23.032C22.9113 23.1107 22.875 23.2924 22.7359 23.4074C22.5968 23.5467 22.4214 23.5648 22.3427 23.468C22.2641 23.3893 22.3004 23.2076 22.4214 23.0926C22.5544 22.9533 22.7359 22.9352 22.8145 23.032ZM23.504 22.142C23.6008 22.2025 23.6008 22.36 23.504 22.4992C23.4073 22.6385 23.244 22.699 23.1653 22.6385C23.0685 22.5598 23.0685 22.4023 23.1653 22.2631C23.25 22.1238 23.4073 22.0633 23.504 22.142Z" fill="#372F2F"/>
</svg>
