<svg width="12" height="17" viewBox="0 0 12 17" fill="none" xmlns="http://www.w3.org/2000/svg">
<g clip-path="url(#clip0)">
<path d="M5.38338 16.461C0.842813 9.54945 0 8.84011 0 6.3C0 2.8206 2.68628 0 6 0C9.31372 0 12 2.8206 12 6.3C12 8.84011 11.1572 9.54945 6.61662 16.461C6.31866 16.913 5.68131 16.913 5.38338 16.461ZM6 8.925C7.38072 8.925 8.5 7.74975 8.5 6.3C8.5 4.85024 7.38072 3.675 6 3.675C4.61928 3.675 3.5 4.85024 3.5 6.3C3.5 7.74975 4.61928 8.925 6 8.925Z" fill="#FF0101"/>
</g>
<defs>
<clipPath id="clip0">
<rect width="12" height="16.8" fill="white"/>
</clipPath>
</defs>
</svg>
